<?xml version="1.0" encoding="UTF-8"?><svg id="a" xmlns="http://www.w3.org/2000/svg" viewBox="0 0 2492.7 243.71"><defs><style>.b{fill:#ffffff;}</style></defs><path class="b" d="M49.21,227.7c-15.96-10.45-28.15-24.89-36.57-43.32C4.21,165.96,0,145.06,0,121.69s4.21-44.27,12.64-62.7C21.07,40.57,33.26,26.12,49.21,15.67,65.17,5.22,84.16,0,106.18,0,132.7,0,154.61,7.47,171.91,22.42c17.3,14.95,28.87,35.11,34.72,60.51h-28.65c-4.72-17.3-13.37-31.06-25.96-41.29-12.59-10.22-27.76-15.34-45.51-15.34-24.5,0-43.26,8.6-56.29,25.79-13.04,17.19-19.55,40.28-19.55,69.27s6.52,52.42,19.55,69.61c13.03,17.19,31.8,25.79,56.29,25.79,16.85,0,31.35-4.55,43.48-13.65,12.14-9.1,20.78-21.29,25.96-36.57h28.65c-6.29,23.37-17.92,42.03-34.89,55.96-16.97,13.94-38.15,20.9-63.54,20.9-22.03,0-41.01-5.22-56.97-15.67Z"/><path class="b" d="M385.96,214.72v26.29H246.74V5.06h29.33l-.34,209.67h110.23Z"/><path class="b" d="M426.07,5.06h29.33V241.02h-29.33V5.06Z"/><path class="b" d="M547.92,227.87c-16.07-10.33-28.26-24.72-36.57-43.15-8.32-18.42-12.47-39.32-12.47-62.7s4.21-44.33,12.64-62.87c8.43-18.54,20.67-33.03,36.74-43.48C564.32,5.22,583.49,0,605.73,0s41.01,5.22,56.97,15.67c15.95,10.45,28.09,24.89,36.4,43.32,8.31,18.43,12.47,39.55,12.47,63.37s-4.16,44.49-12.47,62.7c-8.32,18.2-20.45,32.47-36.4,42.81-15.96,10.34-34.95,15.51-56.97,15.51s-41.75-5.17-57.81-15.51Zm97.92-23.43c11.46-7.97,20.23-19.16,26.29-33.54,6.07-14.38,9.1-30.79,9.1-49.21s-3.03-34.83-9.1-49.21c-6.07-14.38-14.83-25.62-26.29-33.71-11.46-8.09-24.94-12.13-40.45-12.13s-28.99,4.1-40.45,12.3c-11.46,8.21-20.23,19.5-26.29,33.88-6.07,14.38-9.1,30.67-9.1,48.88s3.03,34.78,9.1,49.05c6.07,14.27,14.83,25.45,26.29,33.54,11.46,8.09,24.94,12.13,40.45,12.13s28.99-3.99,40.45-11.97Z"/><path class="b" d="M754.72,5.06h32.7l126.41,189.44h1.35V5.06h28.65V241.02h-33.04l-126.07-186.74h-1.35V241.02h-28.65V5.06Z"/><path class="b" d="M996.74,5.06h86.29c21.12,0,39.61,4.78,55.45,14.33,15.84,9.55,28.09,23.15,36.74,40.79,8.65,17.64,12.98,38.49,12.98,62.53s-4.33,45-12.98,62.87c-8.65,17.87-20.96,31.58-36.91,41.13-15.96,9.55-34.5,14.33-55.62,14.33h-85.96V5.06Zm81.91,208.99c23.82,0,42.92-7.81,57.3-23.43,14.38-15.62,21.57-38.26,21.57-67.92s-7.14-52.3-21.41-67.92c-14.27-15.62-33.43-23.43-57.47-23.43h-53.6V214.05h53.6Z"/><path class="b" d="M1257.64,31.35V108.88h102.14v23.6h-102.14v82.25h115.96v26.29h-145.28V5.06h145.28V31.35h-115.96Z"/><path class="b" d="M1451.29,232.42c-12.92-7.53-22.64-17.24-29.16-29.16-6.52-11.91-9.78-24.38-9.78-37.42v-1.69h32.02v1.69c0,7.87,1.85,15.73,5.56,23.59,3.71,7.87,9.61,14.44,17.7,19.72,8.09,5.28,18.42,7.92,31.01,7.92,14.83,0,27.08-3.82,36.74-11.46,9.66-7.64,14.49-17.98,14.49-31.01,0-10.79-3.54-19.38-10.62-25.79-7.08-6.4-16.13-10.73-27.13-12.98l-34.38-6.4c-39.55-8.76-59.33-29.55-59.33-62.36,0-13.48,3.26-25.28,9.78-35.39,6.52-10.11,15.56-17.92,27.13-23.43C1466.91,2.75,1480.34,0,1495.62,0c17.3,0,32.13,3.49,44.49,10.45,12.36,6.97,21.68,16.01,27.98,27.14,6.29,11.12,9.44,22.64,9.44,34.55v1.35h-32.02v-1.01c0-6.74-1.63-13.65-4.89-20.73-3.26-7.08-8.65-13.2-16.18-18.37-7.53-5.17-17.48-7.75-29.83-7.75-14.16,0-25.45,3.93-33.88,11.8-8.43,7.87-12.64,17.64-12.64,29.33,0,9.89,3.26,17.98,9.78,24.27,6.52,6.29,15.39,10.57,26.63,12.81l31.01,6.07c43.37,8.76,65.06,30,65.06,63.71,0,13.71-3.43,25.85-10.28,36.41-6.86,10.56-16.58,18.82-29.16,24.78-12.59,5.96-26.97,8.93-43.15,8.93-18.2,0-33.77-3.76-46.69-11.29Z"/><path class="b" d="M1624.05,5.06h29.33V241.02h-29.33V5.06Z"/><path class="b" d="M1742.36,225.68c-15.28-11.8-26.58-26.91-33.88-45.34-7.31-18.42-10.96-37.86-10.96-58.32s3.71-40.28,11.12-58.82c7.42-18.54,18.99-33.71,34.72-45.51C1759.1,5.9,1778.77,0,1802.36,0c26.29,0,47.58,7.14,63.88,21.4,16.29,14.27,27.58,32.19,33.88,53.76h-30.67c-4.5-15.28-12.36-27.19-23.6-35.73-11.24-8.54-25.73-12.81-43.48-12.81-23.59,0-42.02,8.54-55.28,25.62-13.26,17.08-19.89,40.45-19.89,70.11s6.79,53.71,20.39,70.79c13.59,17.08,32.3,25.62,56.12,25.62,14.16,0,26.34-2.98,36.57-8.93,10.22-5.95,18.09-14.1,23.59-24.44,5.5-10.33,8.37-22.02,8.6-35.06l.34-9.44h-66.07v-21.91h93.37v122.02h-23.26v-39.1h-2.7c-1.35,3.37-4.38,8.15-9.1,14.33-4.72,6.18-12.53,12.25-23.43,18.2-10.9,5.96-24.78,8.93-41.63,8.93-23.15,0-42.36-5.9-57.64-17.7Z"/><path class="b" d="M1948.65,5.06h32.7l126.41,189.44h1.35V5.06h28.65V241.02h-33.04l-126.07-186.74h-1.35V241.02h-28.65V5.06Z"/><path class="b" d="M2226.23,232.42c-12.92-7.53-22.64-17.24-29.16-29.16-6.52-11.91-9.78-24.38-9.78-37.42v-1.69h32.02v1.69c0,7.87,1.85,15.73,5.56,23.59,3.71,7.87,9.61,14.44,17.7,19.72,8.09,5.28,18.42,7.92,31.01,7.92,14.83,0,27.08-3.82,36.74-11.46,9.66-7.64,14.49-17.98,14.49-31.01,0-10.79-3.54-19.38-10.62-25.79-7.08-6.4-16.13-10.73-27.13-12.98l-34.38-6.4c-39.55-8.76-59.33-29.55-59.33-62.36,0-13.48,3.26-25.28,9.78-35.39,6.52-10.11,15.56-17.92,27.13-23.43C2241.85,2.75,2255.28,0,2270.56,0c17.3,0,32.13,3.49,44.49,10.45,12.36,6.97,21.68,16.01,27.98,27.14,6.29,11.12,9.44,22.64,9.44,34.55v1.35h-32.02v-1.01c0-6.74-1.63-13.65-4.89-20.73-3.26-7.08-8.65-13.2-16.18-18.37-7.53-5.17-17.48-7.75-29.83-7.75-14.16,0-25.45,3.93-33.88,11.8-8.43,7.87-12.64,17.64-12.64,29.33,0,9.89,3.26,17.98,9.78,24.27,6.52,6.29,15.39,10.57,26.63,12.81l31.01,6.07c43.37,8.76,65.06,30,65.06,63.71,0,13.71-3.43,25.85-10.28,36.41-6.86,10.56-16.58,18.82-29.16,24.78-12.59,5.96-26.97,8.93-43.15,8.93-18.2,0-33.77-3.76-46.69-11.29Z"/><path class="b" d="M2424.95,16.52h-15.17V61.35h-13.82V16.52h-14.49V5.06h43.48v11.46Zm67.75-11.46V61.35h-13.15V22.58l-13.48,25.96h-7.42l-13.48-25.96V61.35h-13.82V5.06h19.89l10.45,23.26h1.01l10.45-23.26h19.55Z"/></svg>
