<?xml version="1.0" standalone="no"?>
<!DOCTYPE svg PUBLIC "-//W3C//DTD SVG 20010904//EN"
 "http://www.w3.org/TR/2001/REC-SVG-20010904/DTD/svg10.dtd">
<svg version="1.0" xmlns="http://www.w3.org/2000/svg"
 width="1049.000000pt" height="1049.000000pt" viewBox="0 0 1049.000000 1049.000000"
 preserveAspectRatio="xMidYMid meet">
<metadata>
Created by potrace 1.14, written by Peter Selinger 2001-2017
</metadata>
<g transform="translate(0.000000,1049.000000) scale(0.100000,-0.100000)"
fill="#000000" stroke="none">
<path d="M74 9640 c-26 -13 -46 -33 -57 -56 -16 -32 -17 -331 -17 -4330 0
-3616 2 -4300 14 -4327 7 -18 26 -43 41 -57 l27 -25 5149 -3 c4566 -2 5153 0
5179 13 100 52 104 186 8 245 -33 20 -62 20 -5085 20 l-5052 0 -1 72 c0 40 0
84 -1 98 0 14 1 49 3 78 2 30 1 55 -3 58 -4 2 -4 18 1 35 5 18 6 39 1 48 -5 9
-7 25 -4 36 7 39 9 117 2 121 -4 2 -4 18 1 35 5 18 6 39 1 48 -5 9 -7 25 -4
36 3 17 4 45 2 128 0 6 0 41 0 77 1 36 0 72 0 80 0 8 0 47 0 85 1 39 1 81 0
95 0 14 1 49 3 78 2 30 1 55 -3 58 -4 2 -4 18 1 35 5 18 6 39 1 48 -5 9 -7 25
-4 36 7 39 9 117 2 121 -4 2 -4 18 1 35 5 18 6 39 1 48 -5 9 -7 25 -4 36 3 17
4 45 2 128 0 6 0 41 0 77 1 36 0 72 0 80 0 8 0 47 0 85 1 39 1 81 0 95 0 14 1
49 3 78 2 30 1 55 -3 58 -4 2 -4 18 1 35 5 18 6 39 1 48 -5 9 -7 25 -4 36 7
39 9 117 2 121 -4 2 -4 18 1 35 5 18 6 39 1 48 -5 9 -7 25 -4 36 3 17 4 45 2
128 0 6 0 41 0 77 1 36 0 72 0 80 0 8 0 47 0 85 1 39 1 81 0 95 0 14 1 49 3
78 2 30 1 55 -3 58 -4 2 -4 18 1 35 5 18 6 39 1 48 -5 9 -7 25 -4 36 7 39 9
117 2 121 -4 2 -4 18 1 35 5 18 6 39 1 48 -5 9 -7 25 -4 36 3 17 4 45 2 128 0
6 0 41 0 77 1 36 0 72 0 80 0 8 0 47 0 85 1 39 1 81 0 95 0 14 1 49 3 78 2 30
1 55 -3 58 -4 2 -4 18 1 35 5 18 6 39 1 48 -5 9 -7 25 -4 36 7 39 9 117 2 121
-4 2 -4 18 1 35 5 18 6 39 1 48 -5 9 -7 25 -4 36 3 17 4 45 2 128 0 6 0 41 0
77 1 36 0 72 0 80 0 8 0 47 0 85 1 39 1 81 0 95 0 14 1 49 3 78 2 30 1 55 -3
58 -4 2 -4 18 1 35 5 18 6 39 1 48 -5 9 -7 25 -4 36 7 39 9 117 2 121 -4 2 -4
18 1 35 5 18 6 39 1 48 -5 9 -7 25 -4 36 3 17 4 45 2 128 0 6 0 41 0 77 1 36
0 72 0 80 0 8 0 47 0 85 1 39 1 81 0 95 0 14 1 49 3 78 2 30 1 55 -3 58 -4 2
-4 18 1 35 5 18 6 39 1 48 -5 9 -7 25 -4 36 7 39 9 117 2 121 -4 2 -4 18 1 35
5 18 6 39 1 48 -5 9 -7 25 -4 36 3 17 4 45 2 128 0 6 0 41 0 77 1 36 0 72 0
80 0 8 0 47 0 85 1 39 1 81 0 95 0 14 1 49 3 78 2 30 1 55 -3 58 -4 2 -4 18 1
35 5 18 6 39 1 48 -5 9 -7 25 -4 36 7 39 9 117 2 121 -4 2 -4 18 1 35 5 18 6
39 1 48 -5 9 -7 25 -4 36 3 17 4 45 2 128 0 6 0 41 0 77 1 36 0 72 0 80 0 8 0
47 0 85 1 39 1 81 0 95 0 14 1 49 3 78 2 30 1 55 -3 58 -4 2 -4 18 1 35 5 18
6 39 1 48 -5 9 -7 25 -4 36 8 42 8 117 0 122 -4 2 -3 11 4 19 10 12 585 14
4045 14 l4034 0 1 -32 c3 -175 0 -3710 -3 -3713 -5 -6 -68 82 -68 94 0 5 -3
11 -8 13 -4 2 -27 30 -52 63 -57 77 -97 122 -195 218 -80 78 -294 247 -313
247 -6 0 -12 4 -14 8 -1 4 -34 26 -73 48 -80 45 -134 71 -260 125 -86 36 -304
95 -390 105 -27 3 -57 8 -65 11 -61 21 -438 20 -555 -2 -181 -34 -227 -45
-240 -55 -6 -5 -14 -8 -17 -5 -5 5 -50 -7 -93 -25 -11 -4 -42 -16 -70 -25
-122 -42 -406 -201 -502 -282 -12 -10 -39 -31 -60 -48 -67 -55 -143 -129 -143
-140 0 -7 18 -32 41 -56 22 -24 48 -56 57 -71 9 -16 20 -28 24 -28 4 0 8 -6 8
-13 0 -8 9 -22 20 -32 18 -17 21 -15 82 41 35 33 65 61 68 64 3 3 28 23 55 45
124 101 300 200 451 255 49 18 98 36 109 41 11 4 36 11 55 15 19 4 42 9 50 11
8 3 22 6 30 7 8 1 29 6 45 10 139 32 439 38 570 12 11 -2 40 -7 65 -12 56 -10
45 -7 110 -23 30 -8 60 -16 65 -20 6 -3 19 -7 30 -8 11 -2 29 -7 40 -12 11 -5
39 -16 62 -25 50 -18 196 -87 203 -96 3 -3 16 -11 30 -18 39 -19 54 -29 166
-111 113 -83 344 -315 344 -345 0 -4 11 -19 25 -34 14 -15 25 -32 25 -39 0 -7
5 -13 10 -13 6 0 10 -6 10 -14 0 -8 4 -16 9 -18 10 -3 125 -222 133 -253 4
-11 17 -51 31 -88 43 -114 71 -242 85 -382 12 -125 5 -412 -11 -422 -4 -2 -5
-8 -3 -12 4 -6 -12 -95 -30 -164 -2 -9 -6 -25 -8 -35 -29 -118 -134 -352 -205
-457 -101 -148 -124 -177 -231 -284 -95 -97 -181 -166 -287 -235 -82 -53 -244
-135 -318 -161 -27 -9 -57 -20 -65 -23 -45 -16 -233 -60 -285 -67 -27 -4 -66
-9 -85 -11 -63 -10 -395 -4 -395 7 0 1 -11 2 -25 3 -21 2 -66 10 -115 22 -312
71 -588 221 -815 440 l-64 62 -25 -36 c-13 -20 -27 -39 -31 -42 -3 -3 -24 -27
-45 -55 -22 -27 -49 -58 -59 -68 -19 -17 -18 -18 36 -70 65 -61 97 -90 158
-137 25 -19 48 -39 52 -45 4 -5 8 -6 8 -2 0 4 10 -2 22 -13 13 -12 37 -29 53
-37 17 -9 32 -19 35 -22 18 -22 255 -136 365 -176 96 -34 228 -72 290 -82 17
-2 39 -6 50 -8 188 -33 470 -37 631 -9 160 28 365 82 429 114 17 8 35 15 85
33 3 1 50 26 105 55 55 28 103 52 107 52 5 0 8 3 8 8 0 4 13 13 28 20 16 6 38
21 50 32 12 11 24 20 27 20 3 0 11 4 18 10 7 5 48 39 92 74 124 99 228 205
349 356 65 82 252 412 235 416 -2 0 2 9 10 18 13 15 17 10 41 -48 35 -83 137
-269 161 -295 11 -11 19 -23 19 -27 0 -7 71 -104 95 -130 6 -6 32 -37 59 -68
55 -64 152 -158 223 -216 74 -61 198 -150 209 -150 3 0 19 -9 35 -21 74 -52
287 -147 434 -192 74 -23 101 -30 163 -42 13 -2 32 -7 42 -10 10 -3 34 -8 52
-10 18 -3 47 -7 63 -9 17 -3 65 -7 108 -10 44 -4 83 -8 88 -12 5 -3 9 -2 9 3
0 4 24 7 52 6 43 -1 59 3 85 23 59 45 74 115 38 184 -28 54 -53 63 -225 75
-41 3 -88 7 -105 9 -101 13 -132 18 -150 23 -11 4 -24 8 -30 9 -42 8 -118 30
-170 50 -11 4 -24 8 -30 10 -5 1 -28 10 -50 20 -22 10 -43 17 -47 16 -5 -1 -8
3 -8 10 0 6 -3 9 -6 6 -6 -7 -140 61 -186 93 -14 11 -31 19 -37 19 -6 0 -11 5
-11 10 0 6 -4 10 -10 10 -5 0 -18 6 -27 14 -10 8 -45 35 -78 60 -67 50 -179
157 -240 230 -22 26 -45 53 -51 60 -34 36 -194 295 -194 312 0 3 -9 25 -20 50
-21 45 -36 83 -39 96 -1 4 -8 23 -17 43 -8 19 -14 37 -14 40 0 3 -2 10 -5 17
-9 27 -44 175 -49 213 -4 22 -9 56 -12 75 -4 27 -16 428 -14 488 0 6 0 32 0
57 0 25 0 52 0 60 0 39 0 166 0 178 0 6 1 37 3 67 1 30 -1 60 -6 67 -4 6 -4
13 0 16 4 3 7 45 6 94 -2 48 -3 94 -3 101 0 6 0 32 0 57 0 25 0 52 0 60 0 66
0 167 0 178 0 6 1 38 3 70 1 32 -1 61 -5 63 -5 3 -5 10 -2 16 10 16 11 548 1
548 -5 0 -5 5 -1 12 11 17 11 108 1 108 -5 0 -5 5 -1 12 11 17 11 108 1 108
-5 0 -5 5 -1 12 11 17 11 108 1 108 -5 0 -5 5 -1 12 4 6 7 129 6 272 -1 144
-2 269 -2 279 0 9 0 37 0 62 0 25 0 52 0 60 0 39 0 166 0 178 0 6 1 37 3 67 1
30 -1 60 -6 67 -4 6 -4 13 0 16 4 3 7 45 6 94 -2 48 -3 94 -3 101 0 6 0 32 0
57 0 25 0 52 0 60 0 66 0 167 0 178 0 6 1 38 3 70 1 32 -1 61 -5 63 -5 3 -5
10 -2 16 10 16 11 548 1 548 -5 0 -5 5 -1 12 11 17 11 108 1 108 -5 0 -5 5 -1
12 11 17 11 108 1 108 -5 0 -5 5 -1 12 11 17 11 108 0 108 -4 0 -4 6 1 13 9
12 9 54 -2 112 -7 36 -40 75 -78 93 -22 9 -891 12 -4235 12 -4198 0 -4207 0
-4248 -20z"/>
<path d="M3698 6585 c-2 -1 -52 -5 -113 -9 -60 -3 -122 -8 -138 -11 -15 -3
-53 -9 -85 -15 -141 -25 -393 -102 -428 -131 -6 -5 -14 -6 -17 -2 -4 3 -7 0
-7 -7 0 -7 -3 -10 -6 -7 -4 4 -50 -16 -103 -45 -53 -28 -106 -56 -118 -62 -13
-6 -23 -14 -23 -18 0 -4 -15 -14 -32 -23 -33 -15 -117 -75 -193 -137 -79 -65
-249 -243 -307 -322 -32 -45 -62 -86 -67 -92 -20 -24 -119 -203 -154 -276 -37
-78 -112 -290 -121 -340 -2 -15 -7 -31 -10 -36 -2 -4 -7 -29 -10 -56 -3 -26
-8 -51 -10 -55 -3 -4 -8 -36 -11 -72 -3 -35 -8 -72 -11 -82 -12 -39 -5 -367
10 -447 3 -14 7 -41 10 -60 3 -19 8 -46 11 -60 2 -14 7 -38 10 -55 7 -31 42
-159 52 -185 3 -8 7 -19 8 -25 8 -32 73 -183 113 -260 57 -113 175 -293 230
-350 6 -8 12 -17 12 -20 0 -7 222 -229 260 -260 164 -132 317 -223 505 -300
357 -148 738 -187 1118 -114 29 5 63 12 77 14 14 2 63 16 110 30 47 15 90 28
95 29 6 2 21 7 35 13 14 6 61 26 105 44 89 37 201 94 226 115 8 8 21 14 27 14
7 0 12 5 12 12 0 6 3 8 6 5 4 -4 24 7 44 23 21 17 41 30 44 30 3 0 14 7 24 15
9 9 37 32 62 51 98 77 166 141 265 248 36 38 128 160 160 211 21 33 43 63 49
67 6 4 8 8 4 8 -4 0 8 26 27 58 19 31 35 63 35 70 0 6 5 12 10 12 6 0 10 5 10
11 0 5 11 35 25 65 14 30 25 58 25 62 0 4 7 20 16 37 47 90 -14 206 -111 211
-36 2 -84 -14 -106 -35 -18 -18 -44 -63 -42 -72 6 -23 -198 -393 -237 -429 -3
-3 -30 -34 -60 -70 -173 -204 -405 -373 -645 -470 -11 -4 -36 -15 -55 -23 -61
-27 -236 -75 -298 -82 -18 -2 -41 -6 -50 -9 -93 -29 -436 -23 -582 10 -14 3
-35 8 -46 10 -45 8 -200 56 -228 70 -16 8 -33 14 -37 14 -13 0 -184 84 -187
92 -2 5 -8 8 -14 8 -5 0 -29 13 -53 30 -24 16 -46 30 -50 30 -7 0 -128 93
-168 129 -81 73 -207 205 -207 216 0 3 -9 16 -21 28 -12 12 -45 58 -74 102
-61 92 -114 196 -176 340 -32 76 -81 257 -83 308 0 15 -3 27 -6 27 -3 0 -6 8
-6 18 -1 9 -4 51 -9 92 -12 108 -7 351 7 365 4 4 4 13 2 20 -3 7 7 64 21 126
34 147 30 135 55 204 11 33 22 65 23 70 5 23 140 285 147 285 4 0 12 11 18 25
7 14 16 31 22 38 6 7 31 39 58 72 97 123 159 186 277 280 27 22 54 44 60 48
106 85 415 235 533 258 4 1 18 6 32 11 35 13 147 36 214 43 31 4 67 8 79 11
29 6 285 6 317 -1 14 -2 45 -7 70 -9 25 -3 56 -8 70 -11 14 -3 35 -7 48 -9 42
-9 177 -46 197 -55 11 -5 47 -19 80 -32 81 -31 239 -113 298 -155 26 -19 51
-34 56 -34 5 0 11 -3 13 -7 2 -5 26 -26 53 -48 192 -152 337 -326 455 -548 58
-109 92 -142 151 -145 37 -3 109 22 109 37 0 4 8 16 18 27 39 45 33 88 -34
220 -32 63 -61 114 -64 114 -4 0 -12 11 -18 25 -12 25 -99 148 -142 200 -55
66 -249 254 -305 296 -33 24 -66 50 -73 57 -7 6 -17 12 -22 12 -5 0 -15 6 -22
13 -38 37 -322 189 -377 203 -9 2 -61 19 -116 38 -150 51 -303 81 -470 91 -49
3 -104 7 -122 9 -18 2 -33 3 -35 1z"/>
<path d="M4958 5634 c-75 -125 -185 -368 -202 -449 -1 -5 -9 -35 -18 -65 -15
-49 -29 -115 -44 -194 -3 -16 -6 -47 -8 -71 -2 -24 -6 -47 -9 -51 -6 -11 -1
-407 7 -454 3 -19 7 -51 10 -70 12 -84 56 -261 83 -330 4 -8 7 -18 8 -22 2 -5
4 -10 5 -13 1 -3 3 -8 5 -12 14 -52 115 -266 128 -271 4 -2 7 -9 7 -15 0 -7 8
-22 18 -35 l18 -23 24 33 c25 34 27 37 60 77 11 13 20 28 20 32 0 4 6 14 13
21 6 7 22 31 34 53 l21 40 -20 45 c-11 25 -27 61 -35 80 -8 19 -19 44 -24 55
-12 29 -47 137 -53 166 -3 13 -9 40 -14 59 -5 19 -9 37 -9 40 -3 19 -14 80
-19 105 -10 49 -14 404 -5 410 5 3 7 13 4 23 -13 51 65 339 138 505 l39 88
-64 97 c-77 116 -111 158 -118 146z"/>
</g>
</svg>
